<svg width="25" height="24" viewBox="0 0 25 24" fill="none" xmlns="http://www.w3.org/2000/svg">
<g clip-path="url(#clip0_223_118)">
<path d="M5.20553 0.00585938C2.62033 0.00585938 0.504486 2.12165 0.504486 4.70691V19.2951C0.504486 21.8803 2.62028 23.9954 5.20553 23.9954H19.7937C22.379 23.9954 24.494 21.8803 24.494 19.2951V4.70691C24.494 2.1217 22.379 0.00585938 19.7937 0.00585938H5.20553ZM6.38792 3.96461C7.62747 3.96461 8.39098 4.77836 8.41455 5.84801C8.41455 6.89405 7.62742 7.73067 6.36394 7.73067H6.34069C5.12473 7.73067 4.3388 6.8941 4.3388 5.84801C4.3388 4.77838 5.14851 3.96461 6.38789 3.96461H6.38792ZM17.0698 8.96405C19.4537 8.96405 21.2408 10.5222 21.2408 13.8705V20.1213H17.6179V14.2896C17.6179 12.8242 17.0936 11.8244 15.7825 11.8244C14.7816 11.8244 14.185 12.4982 13.9231 13.1492C13.8274 13.3821 13.8039 13.7074 13.8039 14.0332V20.1213H10.181C10.181 20.1213 10.2285 10.2426 10.181 9.2197H13.8046V10.7635C14.2861 10.0207 15.1472 8.96403 17.0698 8.96403V8.96405ZM4.55249 9.22049H8.17537V20.1213H4.55249V9.22049Z" fill="#C4C4C4"/>
</g>
<defs>
<clipPath id="clip0_223_118">
<rect width="24" height="24" fill="white" transform="translate(0.5)"/>
</clipPath>
</defs>
</svg>
