<svg width="25" height="24" viewBox="0 0 25 24" fill="none" xmlns="http://www.w3.org/2000/svg">
<g clip-path="url(#clip0_223_103)">
<path d="M14.9858 12.2607C14.9858 10.9636 13.9257 9.90822 12.6227 9.90822C11.3198 9.90822 10.2598 10.9637 10.2598 12.2607C10.2598 13.5581 11.3198 14.6133 12.6227 14.6133C13.9257 14.6133 14.9858 13.5581 14.9858 12.2607ZM18.4965 0.0146484H6.5034C3.19916 0.0146484 0.510941 2.69118 0.510941 5.98098V7.64336H9.32885C10.2593 6.98346 11.3957 6.59363 12.6227 6.59363C13.8497 6.59363 14.9862 6.98346 15.9167 7.64336H24.489V5.98098C24.489 2.69115 21.8007 0.0146484 18.4965 0.0146484ZM20.9234 5.68909C20.9234 6.05367 20.6239 6.35202 20.2576 6.35202H18.2003C17.834 6.35202 17.5345 6.05367 17.5345 5.68909V3.64064C17.5345 3.27608 17.834 2.97771 18.2003 2.97771H20.2576C20.6239 2.97771 20.9234 3.27603 20.9234 3.64064V5.68909ZM18.3149 12.2607C18.3149 15.3859 15.7612 17.9279 12.6227 17.9279C9.48399 17.9279 6.93058 15.3859 6.93058 12.2607C6.93058 11.4003 7.12522 10.5844 7.47135 9.85307H0.510941V18.0194C0.510941 21.3094 3.19916 23.9857 6.5034 23.9857H18.4965C21.8008 23.9857 24.489 21.3094 24.489 18.0194V9.85307H17.7741C18.1202 10.5844 18.3149 11.4003 18.3149 12.2607Z" fill="#C4C4C4"/>
</g>
<defs>
<clipPath id="clip0_223_103">
<rect width="24" height="24" fill="white" transform="translate(0.5)"/>
</clipPath>
</defs>
</svg>
