<svg width="25" height="20" viewBox="0 0 25 20" fill="none" xmlns="http://www.w3.org/2000/svg">
<g clip-path="url(#clip0_223_113)">
<path d="M24.4981 2.56284C23.8298 3.55678 23.01 4.40407 22.0386 5.1047C22.0482 5.29261 22.053 5.50499 22.053 5.74185C22.053 7.05789 21.8612 8.37551 21.4774 9.69473C21.0937 11.014 20.5075 12.2767 19.7189 13.4829C18.9303 14.6892 17.991 15.7578 16.9008 16.6888C15.8107 17.6198 14.5003 18.3622 12.9697 18.9158C11.439 19.4695 9.79857 19.7463 8.04834 19.7463C5.31681 19.7463 2.80134 19.0089 0.501923 17.5341C0.910041 17.5795 1.30146 17.6022 1.67618 17.6022C3.95816 17.6022 5.99633 16.8993 7.79069 15.4936C6.72671 15.4741 5.77383 15.1465 4.93205 14.511C4.09028 13.8754 3.51099 13.0633 3.19419 12.0747C3.50733 12.1343 3.81639 12.1641 4.12137 12.1641C4.56036 12.1641 4.99232 12.1069 5.41726 11.9924C4.28179 11.7649 3.33982 11.1994 2.59135 10.2957C1.84291 9.39209 1.46869 8.34909 1.46869 7.16676V7.10583C2.16564 7.49173 2.90906 7.697 3.69893 7.72163C3.02628 7.27321 2.49298 6.68844 2.09901 5.96734C1.70502 5.24624 1.50802 4.46588 1.50802 3.62626C1.50802 2.74075 1.72992 1.91617 2.17371 1.15252C3.40851 2.66782 4.90473 3.8789 6.66237 4.78575C8.42004 5.69261 10.3057 6.19626 12.3193 6.29668C12.2334 5.93876 12.1904 5.56526 12.1902 5.17616C12.1902 3.8176 12.671 2.65758 13.6326 1.69611C14.5941 0.73464 15.7542 0.253906 17.1127 0.253906C18.5351 0.253906 19.7332 0.771825 20.707 1.80766C21.8196 1.58728 22.8613 1.18867 23.8323 0.611825C23.4582 1.78904 22.7374 2.69717 21.6699 3.33624C22.6511 3.21965 23.5938 2.96185 24.498 2.56284H24.4981Z" fill="#C4C4C4"/>
</g>
<defs>
<clipPath id="clip0_223_113">
<rect width="24" height="19.4924" fill="white" transform="translate(0.5 0.253906)"/>
</clipPath>
</defs>
</svg>
